<svg width="1414" height="109" viewBox="0 0 1414 109" fill="none" xmlns="http://www.w3.org/2000/svg">
<path d="M0.450001 107V1.99999H48.15C59.55 1.99999 69.6 4.19999 78.3 8.6C87 12.9 93.8 18.95 98.7 26.75C103.6 34.55 106.05 43.8 106.05 54.5C106.05 65.1 103.6 74.35 98.7 82.25C93.8 90.05 87 96.15 78.3 100.55C69.6 104.85 59.55 107 48.15 107H0.450001ZM24.75 87.05H46.95C53.95 87.05 60 85.75 65.1 83.15C70.3 80.45 74.3 76.65 77.1 71.75C80 66.85 81.45 61.1 81.45 54.5C81.45 47.8 80 42.05 77.1 37.25C74.3 32.35 70.3 28.6 65.1 26C60 23.3 53.95 21.95 46.95 21.95H24.75V87.05ZM171.026 108.8C156.126 108.8 144.476 104.65 136.076 96.35C127.676 88.05 123.476 76.2 123.476 60.8V1.99999H147.776V59.9C147.776 69.9 149.826 77.1 153.926 81.5C158.026 85.9 163.776 88.1 171.176 88.1C178.576 88.1 184.326 85.9 188.426 81.5C192.526 77.1 194.576 69.9 194.576 59.9V1.99999H218.576V60.8C218.576 76.2 214.376 88.05 205.976 96.35C197.576 104.65 185.926 108.8 171.026 108.8ZM242.589 107V1.99999H290.289C301.689 1.99999 311.739 4.19999 320.439 8.6C329.139 12.9 335.939 18.95 340.839 26.75C345.739 34.55 348.189 43.8 348.189 54.5C348.189 65.1 345.739 74.35 340.839 82.25C335.939 90.05 329.139 96.15 320.439 100.55C311.739 104.85 301.689 107 290.289 107H242.589ZM266.889 87.05H289.089C296.089 87.05 302.139 85.75 307.239 83.15C312.439 80.45 316.439 76.65 319.239 71.75C322.139 66.85 323.589 61.1 323.589 54.5C323.589 47.8 322.139 42.05 319.239 37.25C316.439 32.35 312.439 28.6 307.239 26C302.139 23.3 296.089 21.95 289.089 21.95H266.889V87.05ZM388.864 44.3H439.414V63.2H388.864V44.3ZM390.664 87.5H447.814V107H366.514V1.99999H445.864V21.5H390.664V87.5ZM467.149 107V1.99999H491.449V87.2H544.099V107H467.149ZM557.677 107V1.99999H581.977V107H557.677ZM606.895 107V1.99999H626.995L688.945 77.6H679.195V1.99999H703.195V107H683.245L621.145 31.4H630.895V107H606.895ZM750.388 44.3H800.938V63.2H750.388V44.3ZM752.188 87.5H809.338V107H728.038V1.99999H807.388V21.5H752.188V87.5ZM863.173 108.8C854.773 108.8 846.723 107.7 839.023 105.5C831.323 103.2 825.123 100.25 820.423 96.65L828.673 78.35C833.173 81.55 838.473 84.2 844.573 86.3C850.773 88.3 857.023 89.3 863.323 89.3C868.123 89.3 871.973 88.85 874.873 87.95C877.873 86.95 880.073 85.6 881.473 83.9C882.873 82.2 883.573 80.25 883.573 78.05C883.573 75.25 882.473 73.05 880.273 71.45C878.073 69.75 875.173 68.4 871.573 67.4C867.973 66.3 863.973 65.3 859.573 64.4C855.273 63.4 850.923 62.2 846.523 60.8C842.223 59.4 838.273 57.6 834.673 55.4C831.073 53.2 828.123 50.3 825.823 46.7C823.623 43.1 822.523 38.5 822.523 32.9C822.523 26.9 824.123 21.45 827.323 16.55C830.623 11.55 835.523 7.59999 842.023 4.69999C848.623 1.7 856.873 0.199998 866.773 0.199998C873.373 0.199998 879.873 0.999997 886.273 2.59999C892.673 4.09999 898.323 6.39999 903.223 9.49999L895.723 27.95C890.823 25.15 885.923 23.1 881.023 21.8C876.123 20.4 871.323 19.7 866.623 19.7C861.923 19.7 858.073 20.25 855.073 21.35C852.073 22.45 849.923 23.9 848.623 25.7C847.323 27.4 846.673 29.4 846.673 31.7C846.673 34.4 847.773 36.6 849.973 38.3C852.173 39.9 855.073 41.2 858.673 42.2C862.273 43.2 866.223 44.2 870.523 45.2C874.923 46.2 879.273 47.35 883.573 48.65C887.973 49.95 891.973 51.7 895.573 53.9C899.173 56.1 902.073 59 904.273 62.6C906.573 66.2 907.723 70.75 907.723 76.25C907.723 82.15 906.073 87.55 902.773 92.45C899.473 97.35 894.523 101.3 887.923 104.3C881.423 107.3 873.173 108.8 863.173 108.8ZM944.612 107V21.8H911.012V1.99999H1002.51V21.8H968.912V107H944.612ZM1060.48 108.8C1045.58 108.8 1033.93 104.65 1025.53 96.35C1017.13 88.05 1012.93 76.2 1012.93 60.8V1.99999H1037.23V59.9C1037.23 69.9 1039.28 77.1 1043.38 81.5C1047.48 85.9 1053.23 88.1 1060.63 88.1C1068.03 88.1 1073.78 85.9 1077.88 81.5C1081.98 77.1 1084.03 69.9 1084.03 59.9V1.99999H1108.03V60.8C1108.03 76.2 1103.83 88.05 1095.43 96.35C1087.03 104.65 1075.38 108.8 1060.48 108.8ZM1132.04 107V1.99999H1179.74C1191.14 1.99999 1201.19 4.19999 1209.89 8.6C1218.59 12.9 1225.39 18.95 1230.29 26.75C1235.19 34.55 1237.64 43.8 1237.64 54.5C1237.64 65.1 1235.19 74.35 1230.29 82.25C1225.39 90.05 1218.59 96.15 1209.89 100.55C1201.19 104.85 1191.14 107 1179.74 107H1132.04ZM1156.34 87.05H1178.54C1185.54 87.05 1191.59 85.75 1196.69 83.15C1201.89 80.45 1205.89 76.65 1208.69 71.75C1211.59 66.85 1213.04 61.1 1213.04 54.5C1213.04 47.8 1211.59 42.05 1208.69 37.25C1205.89 32.35 1201.89 28.6 1196.69 26C1191.59 23.3 1185.54 21.95 1178.54 21.95H1156.34V87.05ZM1255.97 107V1.99999H1280.27V107H1255.97ZM1356.19 108.8C1347.89 108.8 1340.19 107.45 1333.09 104.75C1326.09 102.05 1319.99 98.25 1314.79 93.35C1309.69 88.45 1305.69 82.7 1302.79 76.1C1299.99 69.5 1298.59 62.3 1298.59 54.5C1298.59 46.7 1299.99 39.5 1302.79 32.9C1305.69 26.3 1309.74 20.55 1314.94 15.65C1320.14 10.75 1326.24 6.94999 1333.24 4.24999C1340.24 1.55 1347.84 0.199998 1356.04 0.199998C1364.34 0.199998 1371.94 1.55 1378.84 4.24999C1385.84 6.94999 1391.89 10.75 1396.99 15.65C1402.19 20.55 1406.24 26.3 1409.14 32.9C1412.04 39.4 1413.49 46.6 1413.49 54.5C1413.49 62.3 1412.04 69.55 1409.14 76.25C1406.24 82.85 1402.19 88.6 1396.99 93.5C1391.89 98.3 1385.84 102.05 1378.84 104.75C1371.94 107.45 1364.39 108.8 1356.19 108.8ZM1356.04 88.1C1360.74 88.1 1365.04 87.3 1368.94 85.7C1372.94 84.1 1376.44 81.8 1379.44 78.8C1382.44 75.8 1384.74 72.25 1386.34 68.15C1388.04 64.05 1388.89 59.5 1388.89 54.5C1388.89 49.5 1388.04 44.95 1386.34 40.85C1384.74 36.75 1382.44 33.2 1379.44 30.2C1376.54 27.2 1373.09 24.9 1369.09 23.3C1365.09 21.7 1360.74 20.9 1356.04 20.9C1351.34 20.9 1346.99 21.7 1342.99 23.3C1339.09 24.9 1335.64 27.2 1332.64 30.2C1329.64 33.2 1327.29 36.75 1325.59 40.85C1323.99 44.95 1323.19 49.5 1323.19 54.5C1323.19 59.4 1323.99 63.95 1325.59 68.15C1327.29 72.25 1329.59 75.8 1332.49 78.8C1335.49 81.8 1338.99 84.1 1342.99 85.7C1346.99 87.3 1351.34 88.1 1356.04 88.1Z" fill="black"/>
</svg>
